<?xml version="1.0" standalone="no"?>
<!DOCTYPE svg PUBLIC "-//W3C//DTD SVG 20010904//EN"
 "http://www.w3.org/TR/2001/REC-SVG-20010904/DTD/svg10.dtd">
<svg version="1.0" xmlns="http://www.w3.org/2000/svg"
 width="1265.000000pt" height="1059.000000pt" viewBox="0 0 1265.000000 1059.000000"
 preserveAspectRatio="xMidYMid meet">

<g transform="translate(0.000000,1059.000000) scale(0.100000,-0.100000)"
fill="#000000" stroke="none">
<path d="M8049 9476 c-4 -4 -1243 -20 -1549 -20 -102 0 -210 3 -241 8 -127 19
-234 -48 -299 -189 -20 -44 -98 -186 -172 -315 -74 -129 -242 -422 -373 -650
-131 -228 -306 -534 -390 -680 -84 -146 -267 -465 -407 -710 -141 -245 -360
-627 -488 -850 -128 -223 -383 -668 -568 -990 -184 -322 -385 -673 -447 -780
-62 -107 -254 -442 -427 -745 -360 -627 -662 -1153 -916 -1595 -220 -383 -206
-353 -210 -430 -5 -86 11 -142 55 -191 62 -69 137 -95 221 -79 31 5 321 148
812 398 421 214 1242 631 1825 927 583 295 1170 593 1304 661 268 137 279 140
376 103 130 -48 225 -206 201 -333 -4 -19 -37 -79 -73 -133 -97 -143 -107
-174 -105 -310 1 -83 6 -123 21 -160 10 -26 33 -82 49 -124 81 -205 186 -370
333 -523 157 -164 322 -277 536 -364 329 -135 716 -148 1056 -36 331 109 637
346 821 637 44 69 122 228 138 279 6 20 16 39 23 42 6 2 94 0 194 -5 100 -5
252 -10 339 -11 147 -2 160 -1 201 21 147 78 177 267 60 378 -62 58 -91 65
-354 75 -132 5 -267 11 -301 14 l-61 5 -6 127 c-12 228 -93 499 -200 669 -15
24 -27 45 -27 49 0 3 172 3 383 0 210 -4 515 -7 677 -9 285 -2 296 -1 335 19
151 81 182 269 64 381 -48 46 -92 60 -194 67 -82 5 -1318 21 -1635 21 -162 0
-208 -14 -268 -79 -80 -86 -83 -212 -8 -302 17 -21 40 -58 52 -83 12 -25 46
-74 77 -108 113 -126 194 -271 243 -438 23 -76 27 -115 31 -250 5 -145 3 -170
-21 -273 -44 -195 -134 -359 -280 -511 -205 -212 -465 -321 -766 -321 -304 0
-574 117 -781 338 -112 120 -242 349 -254 449 -7 53 -8 49 89 208 69 112 87
173 88 305 1 124 -21 210 -82 335 -135 277 -399 446 -695 446 -120 0 -194 -18
-295 -69 -2587 -1322 -3381 -1725 -3385 -1720 -2 2 42 82 97 178 55 96 215
375 356 620 140 245 323 564 407 710 84 146 286 499 450 785 164 286 384 669
488 850 104 182 331 578 505 880 173 303 385 672 470 820 301 525 587 1023
720 1255 74 129 137 237 139 240 3 3 3 -837 1 -1866 l-3 -1870 30 -60 c25 -47
41 -65 85 -92 51 -31 60 -33 126 -30 94 4 154 40 198 118 l31 55 5 1085 5
1085 605 -4 c443 -2 617 0 648 8 24 7 62 29 84 49 124 112 101 307 -46 385
-37 20 -60 22 -266 27 -124 3 -402 7 -619 8 -217 2 -398 5 -403 8 -10 7 -11
1671 0 1678 11 7 753 20 1762 31 267 3 505 8 530 11 66 8 120 35 161 81 48 53
63 101 56 176 -6 71 -40 125 -106 172 l-43 30 -397 2 c-219 2 -400 1 -402 -1z"/>
<path d="M10792 3875 c0 -16 2 -22 5 -12 2 9 2 23 0 30 -3 6 -5 -1 -5 -18z"/>
</g>
</svg>
